<svg width="25" height="25" viewBox="0 0 25 25" fill="none" xmlns="http://www.w3.org/2000/svg">
<path d="M4.5 2C3.12524 2 2 3.12524 2 4.5V20.5C2 21.8748 3.12524 23 4.5 23H12.916C12.97 23.0089 13.0251 23.0089 13.0791 23H15.916C15.97 23.0089 16.0251 23.0089 16.0791 23H20.5C21.8748 23 23 21.8748 23 20.5V4.5C23 3.12524 21.8748 2 20.5 2H4.5ZM4.5 3H20.5C21.3342 3 22 3.66576 22 4.5V20.5C22 21.3342 21.3342 22 20.5 22H16.5V15H18.4102L19.1104 11.5H16.5V10.5C16.5 10.2213 16.5265 10.1995 16.6201 10.1387C16.7137 10.0779 17.0029 10 17.5 10H19V7.18457L18.7148 7.04883C18.7148 7.04883 17.5663 6.5 16 6.5C14.875 6.5 13.9508 6.94823 13.3594 7.6875C12.768 8.42677 12.5 9.41667 12.5 10.5V11.5H11V15H12.5V22H4.5C3.66576 22 3 21.3342 3 20.5V4.5C3 3.66576 3.66576 3 4.5 3ZM16 7.5C17.0395 7.5 17.6937 7.72923 18 7.85059V9H17.5C16.9246 9 16.4635 9.0476 16.0752 9.2998C15.6869 9.55201 15.5 10.0307 15.5 10.5V12.5H17.8896L17.5898 14H15.5V22H13.5V14H12V12.5H13.5V10.5C13.5 9.58333 13.732 8.82323 14.1406 8.3125C14.5492 7.80177 15.125 7.5 16 7.5Z" fill="#151313"/>
</svg>
