<svg width="25" height="25" viewBox="0 0 25 25" fill="none" xmlns="http://www.w3.org/2000/svg">
<path d="M4.5 2C3.12524 2 2 3.12524 2 4.5V20.5C2 21.8748 3.12524 23 4.5 23H20.5C21.8748 23 23 21.8748 23 20.5V4.5C23 3.12524 21.8748 2 20.5 2H4.5ZM4.5 3H20.5C21.3342 3 22 3.66576 22 4.5V20.5C22 21.3342 21.3342 22 20.5 22H4.5C3.66576 22 3 21.3342 3 20.5V4.5C3 3.66576 3.66576 3 4.5 3ZM11.6982 7.99609C11.1695 7.99488 10.698 8.02443 10.2764 8.23145C10.276 8.23177 10.2757 8.2321 10.2754 8.23242C10.0698 8.3337 9.92494 8.46235 9.80957 8.61523C9.75189 8.69168 9.69279 8.7603 9.66113 8.93457C9.6453 9.0217 9.63641 9.16291 9.72754 9.31543C9.81867 9.46795 10.0019 9.55468 10.1191 9.57031C10.2006 9.58115 10.3844 9.6594 10.4014 9.68262C10.4017 9.68327 10.402 9.68392 10.4023 9.68457C10.4025 9.68474 10.4736 9.87057 10.4941 10.0361C10.5147 10.2017 10.5137 10.3359 10.5137 10.3359C10.5135 10.3493 10.5138 10.3626 10.5146 10.376C10.5146 10.376 10.5436 10.8098 10.5244 11.2578C10.5168 11.4364 10.4937 11.5953 10.4697 11.7373C10.2917 11.5407 10.0293 11.1847 9.65039 10.5283C9.23005 9.79972 8.89551 9.14648 8.89551 9.14648C8.87794 9.08957 8.8158 8.91251 8.57324 8.73438C8.30808 8.53894 8.05176 8.50977 8.05176 8.50977C8.0196 8.50332 7.9869 8.50005 7.9541 8.5L5.9834 8.50098C5.9834 8.50098 5.86524 8.49414 5.72363 8.51367C5.58203 8.5332 5.36879 8.5491 5.16309 8.79297C5.16276 8.79329 5.16243 8.79362 5.16211 8.79395C4.97827 9.01361 4.98939 9.25641 5.01172 9.39355C5.03405 9.5307 5.08398 9.63477 5.08398 9.63477C5.08495 9.63672 5.08592 9.63868 5.08691 9.64062C5.08691 9.64062 6.69886 13.0297 8.52051 15.0254C9.84335 16.4744 11.2011 16.499 12.3213 16.499H13.1572C13.3706 16.499 13.5637 16.4907 13.7773 16.3662C13.991 16.2417 14.1348 15.9387 14.1348 15.7285C14.1348 15.5083 14.1677 15.3351 14.208 15.2461C14.2364 15.1835 14.2589 15.161 14.2939 15.1426C14.3014 15.1473 14.2966 15.1445 14.3174 15.1592C14.4006 15.2177 14.5381 15.3511 14.6875 15.5176C14.9864 15.8504 15.3256 16.307 15.7812 16.6201C16.1077 16.8446 16.416 16.9443 16.6504 16.9805C16.7973 17.0031 16.9113 16.9988 16.9922 16.9922L18.8594 17C18.8705 17 18.8815 16.9997 18.8926 16.999C18.8926 16.999 19.2143 17.0028 19.5488 16.8027C19.7161 16.7027 19.9134 16.5131 19.9775 16.2363C20.0417 15.9596 19.9611 15.6729 19.8037 15.4111C19.8037 15.4108 19.8037 15.4105 19.8037 15.4102C19.831 15.4555 19.779 15.3624 19.7256 15.2754C19.6722 15.1884 19.5947 15.0712 19.4834 14.9258C19.2608 14.6349 18.9043 14.228 18.3281 13.6914C18.3278 13.6914 18.3275 13.6914 18.3271 13.6914C18.0345 13.4191 17.8369 13.2263 17.7559 13.1191C17.6749 13.012 17.7014 13.0683 17.707 13.041C17.7182 12.9865 18.0695 12.4798 18.7842 11.5254C19.2186 10.9444 19.5235 10.5083 19.7246 10.1455C19.9257 9.78273 20.0707 9.46855 19.9697 9.08398C19.9694 9.08333 19.9691 9.08268 19.9688 9.08203C19.9239 8.91322 19.8015 8.75762 19.6758 8.67285C19.5501 8.58808 19.4309 8.55493 19.3242 8.53418C19.1109 8.49269 18.9248 8.5 18.752 8.5C18.3896 8.5 16.7817 8.5127 16.6494 8.5127C16.493 8.5127 16.2345 8.58382 16.1201 8.65234C15.8326 8.82539 15.75 9.05273 15.75 9.05273C15.7448 9.06234 15.7399 9.07211 15.7354 9.08203C15.7354 9.08203 15.4037 9.81749 14.9766 10.5439C14.5439 11.2808 14.2242 11.6323 14.0312 11.7949C14.0259 11.766 14.0269 11.7895 14.0234 11.749C14.0061 11.5433 14.0254 11.2589 14.0254 10.9814C14.0254 10.2342 14.0887 9.7112 14.0547 9.24902C14.0377 9.01794 13.9949 8.77964 13.8428 8.56055C13.6907 8.34145 13.4376 8.19911 13.1875 8.13867C13.0374 8.10247 12.8664 8.00832 12.2471 8.00195C12.2467 8.00195 12.2464 8.00195 12.2461 8.00195C12.0567 8.00006 11.8745 7.9965 11.6982 7.99609ZM12.2363 9.00195C12.7843 9.00758 12.6478 9.03775 12.9521 9.11133C13.0465 9.13413 13.0237 9.134 13.0215 9.13086C13.0193 9.12771 13.047 9.17926 13.0576 9.32324C13.0788 9.61119 13.0254 10.1837 13.0254 10.9814C13.0254 11.199 12.9991 11.5094 13.0264 11.833C13.0536 12.1566 13.1338 12.5719 13.5205 12.8223C13.7038 12.9411 13.9166 12.9486 14.0986 12.9033C14.2806 12.8581 14.4458 12.7638 14.6191 12.625C14.9659 12.3473 15.3527 11.8787 15.8389 11.0508C16.2933 10.2779 16.6238 9.54199 16.6348 9.51758C16.6369 9.51586 16.6391 9.51467 16.6416 9.5127C16.6478 9.51276 16.6414 9.5127 16.6494 9.5127C16.8361 9.5127 18.4143 9.5 18.752 9.5C18.8308 9.5 18.8595 9.50475 18.9219 9.50684C18.9049 9.56347 18.9238 9.52735 18.8496 9.66113C18.6941 9.94173 18.4075 10.3587 17.9834 10.9258C17.2866 11.8563 16.8547 12.221 16.7275 12.8389C16.664 13.1478 16.7831 13.4903 16.958 13.7217C17.1329 13.9531 17.3536 14.1514 17.6465 14.4238C18.1888 14.9288 18.5069 15.2956 18.6895 15.5342C18.7807 15.6535 18.8383 15.7396 18.874 15.7979C18.9098 15.8561 18.9009 15.85 18.9473 15.9268C18.9778 15.9779 18.9665 15.9467 18.9717 15.9619C18.9117 15.9788 18.8391 15.9992 18.835 16L16.9961 15.9922C16.963 15.9922 16.9299 15.9954 16.8975 16.002C16.8975 16.002 16.9021 16.0074 16.8037 15.9922C16.7053 15.977 16.5489 15.9344 16.3477 15.7959C16.1048 15.629 15.7648 15.2206 15.4316 14.8496C15.2651 14.6641 15.099 14.486 14.8926 14.3408C14.6862 14.1957 14.3774 14.0592 14.0439 14.1641C13.6978 14.2727 13.4284 14.5429 13.2969 14.833C13.199 15.049 13.191 15.2746 13.1758 15.499C13.1592 15.5003 13.1783 15.499 13.1572 15.499H12.3213C11.1855 15.499 10.3789 15.5776 9.25879 14.3506C7.75204 12.6999 6.37156 9.95351 6.14648 9.50098L7.88086 9.5C7.91134 9.5117 7.97659 9.5362 7.98047 9.53906C7.98112 9.53972 7.98177 9.54037 7.98242 9.54102C7.91902 9.49468 7.98535 9.55957 7.98535 9.55957C7.99147 9.57454 7.99832 9.58921 8.00586 9.60352C8.00586 9.60352 8.34952 10.2749 8.78418 11.0283C9.21054 11.7669 9.52123 12.2283 9.82129 12.5332C9.97132 12.6856 10.1228 12.8079 10.3252 12.877C10.5276 12.946 10.789 12.9207 10.9648 12.8242C11.3241 12.6276 11.3723 12.3376 11.4307 12.084C11.4891 11.8301 11.5123 11.5596 11.5234 11.3008C11.545 10.7985 11.5145 10.3638 11.5127 10.3369C11.5128 10.3275 11.5151 10.1462 11.4863 9.91406C11.4569 9.67634 11.424 9.38568 11.209 9.09277L11.208 9.0918C11.2065 9.08975 11.2046 9.08989 11.2031 9.08789C11.4875 9.04711 11.7308 8.9969 12.2363 9.00195ZM16.6475 9.49219L16.6406 9.50781C16.6396 9.50842 16.6399 9.50709 16.6387 9.50781C16.6408 9.50378 16.6475 9.49219 16.6475 9.49219Z" fill="#151313"/>
</svg>
